<?xml version="1.0" standalone="no"?><!DOCTYPE svg PUBLIC "-//W3C//DTD SVG 1.1//EN" "http://www.w3.org/Graphics/SVG/1.1/DTD/svg11.dtd"><svg t="1649406709008" class="icon" viewBox="0 0 1024 1024" version="1.1" xmlns="http://www.w3.org/2000/svg" p-id="2783" xmlns:xlink="http://www.w3.org/1999/xlink" width="400" height="400"><defs><style type="text/css"></style></defs><path d="M277.9 745.3l234.7-234.7-234.7-234.8L82 471.7c-21.5 21.5-21.5 56.3 0 77.8l195.9 195.8z" fill="#FF5F5F" p-id="2784"></path><path d="M248.9 303.8l234.7 234.7 234.7-234.7L522.5 108c-21.5-21.5-56.3-21.5-77.8 0L248.9 303.8z" fill="#F44D4C" p-id="2785"></path><path d="M747.4 275.8L551.6 80c-21.5-21.5-56.3-21.5-77.8 0L278 275.9l234.6 234.6 234.8-234.7z" fill="#00C3FF" p-id="2786"></path><path d="M277 275.8l234.7 234.7 234.7-234.7L550.6 80c-21.5-21.5-56.3-21.5-77.8 0L277 275.8z" fill="#00B5FC" p-id="2787"></path><path d="M239.887 425.159l78.7-78.7 111.156 111.156-78.7 78.7zM484.3 482.4L249.6 717.1l171.7 171.7c34.8 34.8 91.3 34.8 126.1 0L680.2 756c21.5-21.5 21.5-56.3 0-77.8L484.3 482.4z" fill="#F44D4C" p-id="2788"></path><path d="M353.49 479.601l90.227 90.226-103.308 103.307-90.226-90.226z" fill="#F44D4C" p-id="2789"></path><path d="M277 147.628l83.722-83.721 86.831 86.832-83.72 83.72zM280.709 408.784l83.72-83.72 86.832 86.831-83.72 83.72z" fill="#00B5FC" p-id="2790"></path><path d="M65.47 370.958l83.72-83.72 86.832 86.832-83.72 83.72zM66.41 646.889l83.296-83.297 84.923 84.923-83.296 83.296z" fill="#FF5F5F" p-id="2791"></path><path d="M747.4 745.5L512.7 510.7 278 745.5l195.8 195.8c21.5 21.5 56.3 21.5 77.8 0l195.8-195.8z" fill="#FFF082" p-id="2792"></path><path d="M288.206 601.449l83.72-83.72 86.832 86.831-83.72 83.72zM301.282 876.011l83.72-83.72 83.721 83.72-83.72 83.72z" fill="#FFF082" p-id="2793"></path><path d="M719.2 247.5L484.4 482.3 719.2 717 915 521.2c21.5-21.5 21.5-56.3 0-77.8L719.2 247.5z" fill="#079FDB" p-id="2794"></path><path d="M481.606 354.921l109.176-109.176 92.772 92.771-109.177 109.177z" fill="#079FDB" p-id="2795"></path><path d="M481.473 666.526l95.175-95.175 110.167 110.166-95.176 95.175z" fill="#FFDD60" p-id="2796"></path><path d="M718.2 304.7L483.4 539.4l234.7 234.7L914 578.3c21.5-21.5 21.5-56.3 0-77.8L718.2 304.7z" fill="#FFDD60" p-id="2797"></path><path d="M747.4 275.8L512.7 510.5l234.7 234.7 195.8-195.8c21.5-21.5 21.5-56.3 0-77.8L747.4 275.8z" fill="#B5E66E" p-id="2798"></path><path d="M523.508 370.352l83.721-83.72 86.832 86.831-83.72 83.721zM521.524 649.538l83.72-83.72 86.833 86.831-83.72 83.721z" fill="#B5E66E" p-id="2799"></path></svg>